<?xml version="1.0" standalone="no"?>
<!DOCTYPE svg PUBLIC "-//W3C//DTD SVG 20010904//EN"
 "http://www.w3.org/TR/2001/REC-SVG-20010904/DTD/svg10.dtd">
<svg version="1.0" xmlns="http://www.w3.org/2000/svg"
 width="1280.000000pt" height="640.000000pt" viewBox="0 0 1280.000000 640.000000"
 preserveAspectRatio="xMidYMid meet">
<metadata>
Created by potrace 1.15, written by Peter Selinger 2001-2017
</metadata>
<g transform="translate(0.000000,640.000000) scale(0.100000,-0.100000)"
fill="#000000" stroke="none">
<path d="M2769 4563 c-1 -4 -1 -16 0 -25 2 -14 -5 -18 -28 -18 -24 0 -29 -4
-28 -20 1 -14 8 -20 24 -20 25 0 45 -31 25 -38 -7 -2 -12 -16 -12 -32 0 -23
-98 -322 -114 -349 -3 -4 -6 -188 -8 -409 l-3 -402 -82 -82 -81 -83 -7 -177
-7 -178 -104 0 c-94 0 -107 2 -140 25 -32 22 -47 25 -125 25 -79 0 -90 -2
-117 -25 l-30 -25 -239 0 c-227 0 -239 1 -251 20 -7 11 -19 20 -27 20 -20 0
-19 5 10 34 17 17 25 36 25 58 0 41 -4 47 -58 92 -47 39 -96 47 -145 25 -48
-22 -86 -151 -52 -179 8 -7 15 -15 15 -19 0 -3 -76 -5 -170 -3 -99 2 -170 7
-170 12 0 6 18 10 40 10 55 0 80 26 80 85 0 47 -25 85 -55 85 -9 0 -15 9 -15
23 0 36 -30 57 -82 57 -52 0 -78 -21 -78 -64 0 -16 -11 -41 -25 -58 -29 -34
-31 -57 -10 -97 17 -34 33 -41 86 -41 27 0 38 -4 33 -11 -4 -7 -22 -9 -44 -6
-41 5 -70 -6 -70 -28 0 -23 -392 -22 -446 1 -56 24 -187 15 -216 -13 -44 -44
-79 -184 -59 -235 13 -35 66 -68 109 -68 54 0 81 -40 82 -120 0 -66 0 -66 -32
-75 -29 -9 -33 -14 -33 -45 0 -31 4 -35 35 -45 46 -13 48 -31 5 -45 -43 -14
-82 -60 -91 -105 -8 -42 19 -100 59 -129 l28 -21 6217 -2 c4184 -2 6227 0
6248 7 108 36 123 177 26 238 -28 17 -33 52 -8 52 7 0 21 9 31 20 24 27 7 70
-28 70 -19 0 -23 5 -24 34 -1 19 -9 47 -18 63 -16 27 -16 33 -2 74 15 43 16
44 63 47 61 3 92 18 110 54 18 34 18 107 1 133 -7 11 -19 39 -25 62 -18 62
-40 73 -148 73 -85 0 -95 -2 -123 -26 l-31 -26 0 107 c0 94 2 106 15 95 30
-25 15 10 -35 84 -49 73 -49 75 -52 161 -2 71 -6 90 -20 99 -23 14 -50 -2 -58
-34 -5 -20 -13 -12 -59 58 -29 45 -59 82 -65 82 -12 -1 -306 -432 -306 -449 0
-15 17 -14 23 2 3 6 6 -32 6 -85 l1 -98 -207 0 c-115 0 -245 3 -290 7 l-83 6
0 267 c0 214 -3 270 -14 286 -13 18 -30 19 -227 22 -117 2 -223 1 -235 -2 -47
-12 -54 -31 -54 -137 l0 -99 -75 0 -75 0 0 99 c0 96 -1 100 -27 121 -26 20
-35 21 -251 18 -208 -3 -225 -4 -238 -22 -11 -16 -14 -71 -14 -278 l0 -258
-78 0 c-53 0 -84 -5 -98 -15 -13 -10 -47 -14 -116 -15 l-98 0 0 60 c0 64 -18
113 -45 124 -9 3 -180 6 -380 6 -433 0 -407 7 -413 -114 l-4 -76 -32 0 c-18 0
-41 7 -52 15 -27 20 -212 21 -240 0 -16 -12 -71 -14 -316 -15 l-298 0 0 90 c0
79 2 89 17 83 23 -9 14 13 -39 90 -42 60 -43 65 -48 156 -4 75 -9 96 -22 105
-25 15 -52 -4 -56 -38 -3 -25 -9 -20 -60 55 -31 46 -62 84 -68 86 -9 3 -314
-436 -314 -452 0 -3 9 -3 21 0 20 7 21 5 15 -82 -2 -48 -5 -89 -5 -91 -1 -2
-13 6 -27 17 -23 18 -41 21 -119 21 -77 0 -96 -3 -118 -20 -43 -34 -76 -26
-135 33 -51 52 -52 53 -52 114 0 43 -5 66 -16 77 -18 19 -20 19 -45 6 -10 -6
-19 -20 -19 -31 0 -15 -15 -4 -61 46 -34 36 -65 65 -69 65 -5 0 -75 -74 -157
-165 l-148 -164 -416 -1 c-348 0 -422 2 -452 15 -20 8 -66 15 -102 15 -36 0
-82 -7 -102 -15 -27 -12 -80 -15 -229 -15 l-194 0 1 98 c0 53 3 91 6 85 6 -16
23 -17 23 -2 0 6 -22 43 -50 82 l-50 71 0 87 c0 66 -4 91 -16 103 -18 19 -20
19 -45 6 -13 -7 -19 -21 -19 -43 0 -30 -4 -25 -60 58 -33 49 -63 91 -67 92
-12 4 -313 -448 -306 -459 3 -6 9 -4 14 3 5 9 9 -25 9 -83 l0 -98 -55 0 -55 0
0 96 c0 80 2 94 13 85 8 -6 17 -8 20 -5 6 6 -267 419 -298 453 -11 11 -39 -25
-164 -213 -141 -211 -173 -267 -136 -236 13 11 15 1 15 -84 0 -53 -2 -96 -5
-96 -3 0 -16 7 -30 16 -18 12 -45 15 -122 12 -54 -2 -106 -7 -116 -12 -16 -8
-18 -4 -15 40 3 46 5 48 38 56 57 14 79 29 90 63 14 43 -1 80 -52 128 -37 34
-44 37 -102 37 -60 0 -106 -18 -106 -41 0 -6 -9 -30 -20 -54 -25 -54 -19 -86
22 -120 20 -17 42 -25 69 -25 l39 0 0 -50 0 -50 -144 0 -144 0 -6 78 c-4 42
-9 120 -12 172 l-5 95 -82 83 -82 82 -3 401 c-3 315 -6 407 -17 433 -36 85
-105 301 -105 327 0 16 -4 29 -10 29 -5 0 -10 9 -10 19 0 14 8 21 27 23 39 4
41 27 3 34 -25 5 -31 11 -27 25 3 11 1 22 -4 25 -5 3 -10 2 -10 -3z m-2519
-2207 c0 -3 -4 -8 -10 -11 -5 -3 -10 -1 -10 4 0 6 5 11 10 11 6 0 10 -2 10 -4z"/>
</g>
</svg>
